<svg width="350" height="238" viewBox="0 0 350 238" fill="none" xmlns="http://www.w3.org/2000/svg">
<g clip-path="url(#clip0_2572_18731)">
<path opacity="0.997" fill-rule="evenodd" clip-rule="evenodd" d="M53.25 -0.25C133.083 -0.25 212.916 -0.25 292.75 -0.25C302.005 3.58152 305.838 10.5815 304.25 20.75C303.355 20.0614 302.355 19.5614 301.25 19.25C300.895 18.798 300.395 18.6314 299.75 18.75C298.854 18.3455 297.854 18.0954 296.75 18C299.501 13.6481 299.168 9.4815 295.75 5.5C294.223 4.40306 292.556 3.56972 290.75 3C212.083 2.66666 133.416 2.66666 54.75 3C52.6235 4.35483 50.54 5.7715 48.5 7.25C47.3769 9.81255 47.0436 12.4792 47.5 15.25C48.4617 16.411 49.1284 17.7444 49.5 19.25C51.311 20.5302 53.2275 21.6136 55.25 22.5C89.9165 22.75 124.583 22.8334 159.25 22.75C159.283 23.4793 159.117 24.146 158.75 24.75C158.75 25.4166 158.75 26.0834 158.75 26.75C158.254 30.6579 158.087 34.6579 158.25 38.75C124.416 38.75 90.5835 38.75 56.75 38.75C48.8657 38.3608 44.0324 34.3608 42.25 26.75C42.1667 21.9138 42.2501 17.0805 42.5 12.25C43.6308 8.35935 45.7141 5.026 48.75 2.25C48.75 1.91666 48.9166 1.75 49.25 1.75C50.673 1.72418 51.84 1.22418 52.75 0.25C53.0835 0.25 53.25 0.0833335 53.25 -0.25Z" fill="#4B58CC"/>
<path opacity="0.996" fill-rule="evenodd" clip-rule="evenodd" d="M52.75 0.25C51.84 1.22418 50.673 1.72418 49.25 1.75C50.2545 0.96741 51.4215 0.467412 52.75 0.25Z" fill="#4B58CC"/>
<path fill-rule="evenodd" clip-rule="evenodd" d="M299.75 18.75C254.666 18.5837 209.666 18.7503 164.75 19.25C163.242 19.6716 161.909 20.4216 160.75 21.5C160.089 21.908 159.756 22.4913 159.75 23.25C159.75 23.75 159.75 24.25 159.75 24.75C159.417 24.75 159.084 24.75 158.75 24.75C159.117 24.1461 159.284 23.4794 159.25 22.75C124.583 22.8334 89.9166 22.75 55.2501 22.5C53.2276 21.6136 51.3111 20.5303 49.5001 19.25C49.1285 17.7444 48.4618 16.4111 47.5001 15.25C47.0437 12.4792 47.377 9.81255 48.5001 7.25C50.5401 5.7715 52.6236 4.35483 54.7501 3C133.417 2.66667 212.084 2.66667 290.75 3C292.556 3.56973 294.223 4.40306 295.75 5.5C299.168 9.4815 299.501 13.6482 296.75 18C297.854 18.0955 298.854 18.3455 299.75 18.75Z" fill="#3643BA"/>
<path opacity="0.909" fill-rule="evenodd" clip-rule="evenodd" d="M48.7501 2.25C45.7142 5.026 43.6309 8.35935 42.5001 12.25C42.2502 17.0805 42.1669 21.9138 42.2501 26.75C41.6709 21.6708 41.5875 16.5041 42.0001 11.25C43.1719 7.39155 45.4219 4.39155 48.7501 2.25Z" fill="#4B58CC"/>
<path fill-rule="evenodd" clip-rule="evenodd" d="M299.75 18.7498C300.396 18.6312 300.896 18.7978 301.25 19.2498C259.583 19.1665 217.917 19.2498 176.25 19.4998C174.069 19.6845 171.902 19.9345 169.75 20.2498C169.75 20.7498 169.75 21.2498 169.75 21.7498C169.084 21.7498 168.416 21.7498 167.75 21.7498C167.942 22.9645 168.275 24.1312 168.75 25.2498C170.425 25.1673 172.092 25.2507 173.75 25.4998C174.531 25.8793 175.031 26.4626 175.25 27.2498C173.867 26.6845 172.45 26.1845 171 25.7498C165.317 27.7055 164.234 31.2055 167.75 36.2498C165.121 35.4246 162.621 35.5913 160.25 36.7498C159.589 35.031 159.255 33.1143 159.25 30.9998C159.265 28.876 159.432 26.7926 159.75 24.7498C159.75 24.2498 159.75 23.7498 159.75 23.2498C161.598 22.0603 163.265 20.727 164.75 19.2498C209.666 18.7501 254.666 18.5835 299.75 18.7498Z" fill="#101010"/>
<path opacity="0.999" fill-rule="evenodd" clip-rule="evenodd" d="M301.25 19.25C302.355 19.5614 303.355 20.0614 304.25 20.75C305.812 21.8622 306.896 23.3622 307.5 25.25C307.833 29.25 307.833 33.25 307.5 37.25C306.535 40.7761 304.285 43.0261 300.75 44C296.614 44.6652 292.446 44.9152 288.25 44.75C247.416 44.9167 206.582 44.75 165.75 44.25C163.203 43.5677 161.37 42.0677 160.25 39.75C160.25 38.75 160.25 37.75 160.25 36.75C162.621 35.5915 165.121 35.4248 167.75 36.25C170.601 37.7766 173.267 37.4433 175.75 35.25C176.075 35.0981 176.408 34.9314 176.75 34.75C177.405 32.6754 177.405 30.6754 176.75 28.75C175.928 28.5949 175.428 28.0949 175.25 27.25C175.031 26.4628 174.531 25.8795 173.75 25.5C172.092 25.2509 170.425 25.1675 168.75 25.25C168.275 24.1314 167.942 22.9647 167.75 21.75C168.416 21.75 169.084 21.75 169.75 21.75C169.75 21.25 169.75 20.75 169.75 20.25C171.902 19.9347 174.069 19.6847 176.25 19.5C217.917 19.25 259.583 19.1667 301.25 19.25Z" fill="#101010"/>
<path fill-rule="evenodd" clip-rule="evenodd" d="M164.75 19.25C163.265 20.7271 161.598 22.0605 159.75 23.25C159.755 22.4913 160.089 21.908 160.75 21.5C161.908 20.4216 163.242 19.6716 164.75 19.25Z" fill="#101010"/>
<path fill-rule="evenodd" clip-rule="evenodd" d="M209.25 22.25C239.251 22.1667 269.251 22.25 299.25 22.5C302.342 24.2699 302.509 26.2699 299.75 28.5C269.25 28.8334 238.75 28.8334 208.25 28.5C207.689 26.7958 207.606 25.0458 208 23.25C208.498 22.9671 208.914 22.6337 209.25 22.25Z" fill="#343434"/>
<path fill-rule="evenodd" clip-rule="evenodd" d="M158.75 24.75C159.084 24.75 159.417 24.75 159.75 24.75C159.432 26.7928 159.265 28.8761 159.25 31C159.255 33.1145 159.589 35.0311 160.25 36.75C160.25 37.75 160.25 38.75 160.25 39.75C159.721 39.1999 159.304 38.5332 159 37.75C158.75 34.0871 158.667 30.4204 158.75 26.75C158.75 26.0834 158.75 25.4166 158.75 24.75Z" fill="#101010"/>
<path fill-rule="evenodd" clip-rule="evenodd" d="M175.25 27.25C175.428 28.0949 175.928 28.5949 176.75 28.75C176.973 31.0507 176.639 33.2174 175.75 35.25C173.268 37.4432 170.601 37.7766 167.75 36.25C164.234 31.2057 165.317 27.7057 171 25.75C172.45 26.1847 173.867 26.6847 175.25 27.25Z" fill="#4B58CC"/>
<path fill-rule="evenodd" clip-rule="evenodd" d="M176.75 28.75C177.405 30.6753 177.405 32.6753 176.75 34.75C176.408 34.9313 176.075 35.098 175.75 35.25C176.639 33.2174 176.972 31.0507 176.75 28.75Z" fill="#012443"/>
<path fill-rule="evenodd" clip-rule="evenodd" d="M158.75 26.75C158.667 30.4204 158.75 34.0871 159 37.75C159.304 38.5332 159.721 39.1999 160.25 39.75C161.37 42.0677 163.203 43.5677 165.75 44.25C206.582 44.75 247.416 44.9166 288.25 44.75C288.25 44.9166 288.25 45.0834 288.25 45.25C266.25 45.1666 244.25 45.25 222.25 45.5C218.122 46.12 213.955 46.4534 209.75 46.5C209.083 47.0831 208.25 47.1664 207.25 46.75C206.313 46.6949 205.563 47.0282 205 47.75C204.833 47.5834 204.667 47.4166 204.5 47.25C200.122 47.6593 195.706 47.9093 191.25 48C186.841 48.7798 182.424 49.5298 178 50.25C160.272 52.3175 142.522 54.2345 124.75 56C118.347 57.801 112.014 59.801 105.75 62C104.309 63.37 102.642 64.37 100.75 65C98.2365 67.5135 95.903 69.847 93.75 72C90.2225 74.2615 86.889 76.7615 83.75 79.5C83.9165 80 84.0835 80.5 84.25 81C82.8035 83.476 81.5535 86.0595 80.5 88.75C78.3605 96.111 76.444 103.528 74.75 111C74.599 112.357 74.7655 113.774 75.25 115.25C74.8425 127.758 74.2595 140.258 73.5 152.75C73.37 154.625 73.0365 156.458 72.5 158.25C71.822 158.69 71.072 158.857 70.25 158.75C70.25 160.25 70.25 161.75 70.25 163.25C69.595 160.356 69.2615 157.356 69.25 154.25C69.5585 151.201 69.225 148.368 68.25 145.75C66.386 129.78 64.7195 113.779 63.25 97.75C63.333 95.078 63.2495 92.4115 63 89.75C62.861 89.292 62.611 88.959 62.25 88.75C62.25 88.4165 62.25 88.0835 62.25 87.75C62.333 84.7455 62.2495 81.7455 62 78.75C61.607 75.6245 61.024 72.6245 60.25 69.75C59.0105 59.43 57.844 49.0965 56.75 38.75C90.5835 38.75 124.417 38.75 158.25 38.75C158.087 34.6579 158.254 30.6579 158.75 26.75Z" fill="#3643BA"/>
<path fill-rule="evenodd" clip-rule="evenodd" d="M288.25 45.25C283.748 89.438 279.081 133.604 274.25 177.75C274.25 178.75 274.25 179.75 274.25 180.75C273.525 186.608 270.358 190.525 264.75 192.5C261.421 192.75 258.088 192.833 254.75 192.75C245.083 192.75 235.417 192.75 225.75 192.75C190.583 192.75 155.417 192.75 120.25 192.75C110.583 192.75 100.917 192.75 91.25 192.75C87.746 192.833 84.246 192.75 80.75 192.5C79.485 192.055 78.3185 191.471 77.25 190.75C75.8785 189.881 74.8785 188.714 74.25 187.25C73.7685 185.271 73.1015 183.438 72.25 181.75C71.9165 180.416 71.5835 179.084 71.25 177.75C71.25 176.084 71.25 174.417 71.25 172.75C71.5565 169.865 71.223 167.198 70.25 164.75C70.25 164.25 70.25 163.75 70.25 163.25C70.25 161.75 70.25 160.25 70.25 158.75C71.072 158.857 71.822 158.69 72.5 158.25C73.0365 156.458 73.37 154.625 73.5 152.75C74.2595 140.258 74.8425 127.758 75.25 115.25C74.7655 113.774 74.599 112.358 74.75 111C76.444 103.528 78.3605 96.111 80.5 88.75C81.5535 86.0595 82.8035 83.476 84.25 81C84.0835 80.5 83.9165 80 83.75 79.5C86.889 76.7615 90.2225 74.2615 93.75 72C95.903 69.847 98.2365 67.5135 100.75 65C102.642 64.37 104.309 63.37 105.75 62C112.014 59.801 118.347 57.801 124.75 56C142.522 54.2345 160.272 52.3175 178 50.25C182.424 49.5298 186.841 48.7798 191.25 48C195.706 47.9093 200.122 47.6593 204.5 47.25C204.667 47.4167 204.833 47.5834 205 47.75C205.563 47.0282 206.313 46.6949 207.25 46.75C208.25 47.1665 209.083 47.0831 209.75 46.5C213.955 46.4534 218.122 46.12 222.25 45.5C244.25 45.25 266.25 45.1667 288.25 45.25Z" fill="#4B58CC"/>
<path opacity="0.872" fill-rule="evenodd" clip-rule="evenodd" d="M60.25 69.75C61.024 72.6245 61.607 75.6245 62 78.75C62.2495 81.7455 62.333 84.7455 62.25 87.75C61.262 81.856 60.595 75.856 60.25 69.75Z" fill="#3643BA"/>
<path fill-rule="evenodd" clip-rule="evenodd" d="M119.25 93.2498C119.528 96.9863 118.361 100.153 115.75 102.75C115.254 102.664 114.921 102.831 114.75 103.25C112.15 104.343 109.484 104.509 106.75 103.75C102.075 101.326 100.325 97.4933 101.5 92.2498C104.032 86.8588 108.115 85.1088 113.75 86.9998C116.589 88.2523 118.423 90.3353 119.25 93.2498Z" fill="white"/>
<path fill-rule="evenodd" clip-rule="evenodd" d="M239.25 87.25C241.568 88.0695 243.234 89.5695 244.25 91.75C245.661 100.675 241.828 104.841 232.75 104.25C229.575 102.741 227.741 100.241 227.25 96.75C227.969 89.538 231.969 86.3715 239.25 87.25Z" fill="white"/>
<path fill-rule="evenodd" clip-rule="evenodd" d="M239.25 87.2502C231.969 86.3717 227.969 89.5382 227.25 96.7502C226.793 89.4582 230.293 86.0417 237.75 86.5002C238.369 86.6162 238.869 86.8662 239.25 87.2502Z" fill="#ABB2EB"/>
<path opacity="0.949" fill-rule="evenodd" clip-rule="evenodd" d="M62.25 88.75C62.611 88.959 62.861 89.292 63 89.75C63.2495 92.4115 63.333 95.078 63.25 97.75C62.659 94.8495 62.326 91.8495 62.25 88.75Z" fill="#3643BA"/>
<path fill-rule="evenodd" clip-rule="evenodd" d="M119.25 93.25C119.727 94.1415 120.061 95.1415 120.25 96.25C119.6 98.189 118.767 100.023 117.75 101.75C117.189 102.315 116.522 102.649 115.75 102.75C118.361 100.154 119.528 96.9865 119.25 93.25Z" fill="#ABB2EB"/>
<path fill-rule="evenodd" clip-rule="evenodd" d="M244.25 91.75C244.906 92.8715 245.239 94.205 245.25 95.75C245.157 97.828 244.741 99.828 244 101.75C240.622 104.932 236.872 105.765 232.75 104.25C241.828 104.841 245.661 100.675 244.25 91.75Z" fill="#ABB2EB"/>
<path fill-rule="evenodd" clip-rule="evenodd" d="M114.75 103.25C114.496 103.929 113.997 104.43 113.25 104.75C111.25 105.416 109.25 105.416 107.25 104.75C107.068 104.408 106.902 104.075 106.75 103.75C109.484 104.51 112.15 104.343 114.75 103.25Z" fill="#ABB2EB"/>
<path fill-rule="evenodd" clip-rule="evenodd" d="M217.25 121.75C217.314 122.827 217.064 123.827 216.5 124.75C201.197 137.498 183.614 142.665 163.75 140.25C163.084 140.25 162.417 140.25 161.75 140.25C159.524 139.4 157.19 138.734 154.75 138.25C152.692 137.399 150.525 136.731 148.25 136.25C144.772 134.588 141.272 132.921 137.75 131.25C134.806 129.396 132.056 127.23 129.5 124.75C127.88 121.286 128.964 119.286 132.75 118.75C135.621 119.938 138.288 121.521 140.75 123.5C165.413 137.151 189.079 135.65 211.75 119C214.338 118.522 216.172 119.438 217.25 121.75Z" fill="white"/>
<path fill-rule="evenodd" clip-rule="evenodd" d="M217.25 121.75C218.172 122.102 218.422 122.768 218 123.75C217.521 125.011 216.771 126.095 215.75 127C212.083 129.333 208.417 131.667 204.75 134C195.066 138.761 184.733 141.345 173.75 141.75C170.213 141.666 166.879 141.166 163.75 140.25C183.614 142.665 201.197 137.498 216.5 124.75C217.064 123.827 217.314 122.827 217.25 121.75Z" fill="#ABB2EB"/>
<path fill-rule="evenodd" clip-rule="evenodd" d="M137.75 131.25C141.272 132.921 144.772 134.588 148.25 136.25C147.4 136.33 146.567 136.247 145.75 136C142.855 134.664 140.188 133.081 137.75 131.25Z" fill="#ABB2EB"/>
<path fill-rule="evenodd" clip-rule="evenodd" d="M154.75 138.25C157.19 138.734 159.523 139.4 161.75 140.25C160.406 140.332 159.073 140.249 157.75 140C156.556 139.63 155.555 139.048 154.75 138.25Z" fill="#ABB2EB"/>
<path fill-rule="evenodd" clip-rule="evenodd" d="M68.25 145.75C69.225 148.368 69.5585 151.201 69.25 154.25C68.6915 151.513 68.3585 148.68 68.25 145.75Z" fill="#3643BA"/>
<path opacity="0.77" fill-rule="evenodd" clip-rule="evenodd" d="M70.25 164.75C71.223 167.198 71.5565 169.865 71.25 172.75C70.6675 170.184 70.334 167.517 70.25 164.75Z" fill="#4B58CC"/>
<path opacity="0.298" fill-rule="evenodd" clip-rule="evenodd" d="M71.25 177.75C71.5835 179.084 71.9165 180.416 72.25 181.75C72.139 183.921 72.8055 185.755 74.25 187.25C74.8785 188.714 75.8785 189.881 77.25 190.75C77.207 191.248 77.374 191.664 77.75 192C78.522 192.145 79.1885 192.478 79.75 193C83.5795 193.25 87.413 193.333 91.25 193.25C91.889 202.139 96.639 206.972 105.5 207.75C114.881 207.119 119.798 202.12 120.25 192.75C155.417 192.75 190.583 192.75 225.75 192.75C225.75 192.917 225.75 193.083 225.75 193.25C226.35 202.017 231.017 206.85 239.75 207.75C245.598 207.784 250.014 205.285 253 200.25C254.054 198.032 254.638 195.698 254.75 193.25C259.603 193.377 264.437 193.211 269.25 192.75C269.119 192.011 269.285 191.345 269.75 190.75C273.034 188.237 274.534 184.904 274.25 180.75C274.25 179.75 274.25 178.75 274.25 177.75C294.263 179.735 313.763 183.985 332.75 190.5C338.524 192.509 343.608 195.593 348 199.75C348.47 200.863 349.054 201.863 349.75 202.75C349.75 203.916 349.75 205.084 349.75 206.25C348.247 209.01 346.247 211.427 343.75 213.5C332.118 219.815 319.784 224.149 306.75 226.5C270.333 233.391 233.667 237.141 196.75 237.75C181.917 237.75 167.083 237.75 152.25 237.75C122.014 236.873 91.8475 234.29 61.75 230C45.8337 227.812 30.3337 223.979 15.25 218.5C11.1733 216.713 7.34005 214.546 3.75 212C2.08042 210.259 0.74708 208.342 -0.25 206.25C-0.25 205.084 -0.25 203.916 -0.25 202.75C1.10302 199.977 3.10302 197.727 5.75 196C17.3564 189.687 29.6897 185.353 42.75 183C52.3175 181.24 61.8175 179.49 71.25 177.75Z" fill="#F5F4F5"/>
<path opacity="0.991" fill-rule="evenodd" clip-rule="evenodd" d="M72.2499 181.75C73.1014 183.438 73.7684 185.271 74.2499 187.25C72.8054 185.755 72.1389 183.921 72.2499 181.75Z" fill="#4B58CC"/>
<path opacity="0.296" fill-rule="evenodd" clip-rule="evenodd" d="M77.25 190.75C78.3185 191.471 79.485 192.055 80.75 192.5C84.246 192.75 87.746 192.833 91.25 192.75C91.25 192.917 91.25 193.083 91.25 193.25C87.413 193.333 83.5795 193.25 79.75 193C79.1885 192.478 78.522 192.145 77.75 192C77.374 191.664 77.207 191.248 77.25 190.75Z" fill="#ABB2EB"/>
<path opacity="0.303" fill-rule="evenodd" clip-rule="evenodd" d="M274.25 180.75C274.534 184.904 273.034 188.237 269.75 190.75C269.285 191.345 269.119 192.011 269.25 192.75C264.437 193.211 259.603 193.377 254.75 193.25C254.75 193.083 254.75 192.917 254.75 192.75C258.088 192.833 261.421 192.75 264.75 192.5C270.358 190.525 273.525 186.608 274.25 180.75Z" fill="#ABB2EB"/>
<path opacity="0.997" fill-rule="evenodd" clip-rule="evenodd" d="M91.25 192.75C100.917 192.75 110.583 192.75 120.25 192.75C119.798 202.12 114.881 207.119 105.5 207.75C96.639 206.972 91.889 202.139 91.25 193.25C91.25 193.083 91.25 192.917 91.25 192.75Z" fill="#101010"/>
<path fill-rule="evenodd" clip-rule="evenodd" d="M98.7499 193.25C103.083 193.25 107.416 193.25 111.75 193.25C111.831 194.429 111.748 195.595 111.5 196.75C106.923 201.042 102.756 200.708 98.9999 195.75C98.7529 194.933 98.6699 194.1 98.7499 193.25Z" fill="#343434"/>
<path opacity="0.997" fill-rule="evenodd" clip-rule="evenodd" d="M225.75 193.25C228.25 193.25 230.75 193.25 233.25 193.25C234.536 199.062 238.036 200.978 243.75 199C245.613 197.523 246.613 195.606 246.75 193.25C249.417 193.25 252.083 193.25 254.75 193.25C254.638 195.698 254.054 198.032 253 200.25C250.014 205.285 245.598 207.784 239.75 207.75C231.017 206.85 226.35 202.017 225.75 193.25Z" fill="#101010"/>
<path fill-rule="evenodd" clip-rule="evenodd" d="M225.75 193.25C225.75 193.083 225.75 192.917 225.75 192.75C235.417 192.75 245.083 192.75 254.75 192.75C254.75 192.917 254.75 193.083 254.75 193.25C252.083 193.25 249.417 193.25 246.75 193.25C246.613 195.606 245.613 197.523 243.75 199C238.036 200.978 234.536 199.062 233.25 193.25C230.75 193.25 228.25 193.25 225.75 193.25Z" fill="#343434"/>
</g>
<defs>
<clipPath id="clip0_2572_18731">
<rect width="350" height="238" fill="white"/>
</clipPath>
</defs>
</svg>
